<svg xmlns="http://www.w3.org/2000/svg" xmlns:xlink="http://www.w3.org/1999/xlink" viewBox="0 0 986.79 255.5"><defs><style>.cls-1,.cls-2{fill:#01a0e7;}.cls-1,.cls-3{fill-rule:evenodd;}.cls-3,.cls-4{fill:#0b53b6;}.cls-5{fill:url(#linear-gradient);}.cls-6{fill:#fff;}.cls-7{fill:url(#linear-gradient-2);}</style><linearGradient id="linear-gradient" x1="127.75" x2="127.75" y2="255.5" gradientTransform="translate(230.03 -21.17) rotate(79.48)" gradientUnits="userSpaceOnUse"><stop offset="0" stop-color="#22e1fd"/><stop offset="0.97" stop-color="#0b53b6"/></linearGradient><linearGradient id="linear-gradient-2" x1="117.56" y1="0.35" x2="118.77" y2="254.54" gradientTransform="matrix(1, 0, 0, 1, 0, 0)" xlink:href="#linear-gradient"/></defs><g id="图层_2" data-name="图层 2"><g id="图层_1-2" data-name="图层 1"><path class="cls-1" d="M574.39,186a3.86,3.86,0,0,0,4.15-4.06c0-1.39,0-10.48,0-11.88,0-4-4.12-3.65-4.12-3.65l-83.74-.13c-8,0-8.2-8.13-8.2-8.13-.1-.51,0-8.12,0-8.12h80c22.21,0,20.3-16,20.3-16V118.13S584.62,90,554.52,90H487.09c-30.64,0-28.56,27.76-28.56,27.76,0,15,0,20.4,0,40.19,0,28,28,27.89,28,27.89m67.94-55.81H482.45s0-10.36,0-11.94a8.52,8.52,0,0,1,8-8.06h60.12c3.63,0,7.83,4.06,7.81,8,0,3.12-.06,5-.06,8C558.39,126.05,558.39,130.05,554.52,130.05Z"/><path class="cls-1" d="M446.57,54.05c-1.72,0-14.32,0-16,0a3.78,3.78,0,0,0-3.74,4.11c0,.33,0,31.89,0,31.89-16.83,0-34.65,0-52.17,0-37.65,0-44.28,32.59-44.25,48.06s6.88,47.84,44.94,47.8,39.2.09,55.32.09c19.95,0,20.15-19.88,20.15-19.88V58.05C450.79,54.05,446.57,54.05,446.57,54.05Zm-19.77,108a4.38,4.38,0,0,1-4.43,4c-4.36,0-25.67.12-38.75.08s-29.22-2.95-29.23-27.74,18-28.35,29.13-28.35h43.26S426.8,158.53,426.8,162.08Z"/><rect class="cls-2" x="850.51" y="53.5" width="24" height="24" rx="4"/><path class="cls-1" d="M874.79,182a4,4,0,0,1-4,4h-16a4,4,0,0,1-4-4V94a4,4,0,0,1,4-4l16.08.29a3.54,3.54,0,0,1,3.64,3.8Z"/><path class="cls-1" d="M946.79,90c-29.38,0-64,0-64,0V182a3.93,3.93,0,0,0,4.8,4l14,0c5.52.79,5.36-4,5.36-4l-.12-71.81,40,0c.67,0,16.15.3,16.15,20l.17,51.78a3.74,3.74,0,0,0,3.72,4h16a3.85,3.85,0,0,0,3.81-4s.17-47.33.17-53.56C986.79,106,976.17,90.08,946.79,90Z"/><path class="cls-3" d="M426.78,162.26a4.27,4.27,0,0,1-4.41,3.79c-4.36,0-25.65,0-38.73,0s-29.14-2.91-29.14-27.69c0-25.71,19.61-28.34,28.93-28.33,0,0-64.34-1.32-46.68,53,5.25,14.55,19.63,23,38.54,23,23.19,0,20.56-.07,28-.05A23.69,23.69,0,0,0,426.78,162.26Z"/><path class="cls-1" d="M726.78,222.05h15.93s4.09,0,4.09-4.07c0-.33,0-31.93,0-31.93,16.84,0,34.13-.15,51.66-.15,37.64,0,44.34-32.44,44.31-47.91S836,90.11,797.92,90.15s-39.08,0-55.2,0c-20,0-19.93,19.88-19.93,19.88V218.05C722.79,222.05,726.78,222.05,726.78,222.05Zm20-108.1a3.8,3.8,0,0,1,4-3.9c4.36,0,25.65,0,38.73,0s29.14,2.91,29.14,27.7-17.89,28.46-29,28.46-42.83-.28-42.83-.28S746.76,117.5,746.76,114Z"/><path class="cls-3" d="M574.62,166l-83.89-.06c-8.24,0-8.23-7.81-8.23-7.81S480.64,186,504.89,186h69.68a3.92,3.92,0,0,0,4.22-4V170.05C578.79,166.18,574.62,166,574.62,166Z"/><path class="cls-1" d="M706.39,186a3.86,3.86,0,0,0,4.15-4.06c0-1.39,0-10.48,0-11.88,0-4-4.2-3.71-4.2-3.71l-83.56-.07c-8.06,0-8.3-8.13-8.3-8.13-.1-.51,0-8.12,0-8.12h80c22.21,0,20.3-16,20.3-16V118.13S716.62,90,686.52,90H619.09c-30.64,0-28.56,27.76-28.56,27.76,0,15,0,20.4,0,40.19,0,28,28,27.89,28,27.89m67.94-55.81H614.45s0-10.36,0-11.94a8.52,8.52,0,0,1,8-8.06h60.12c3.63,0,7.83,4.06,7.81,8,0,3.12-.06,5-.06,8C690.39,126.05,690.39,130.05,686.52,130.05Z"/><path class="cls-3" d="M706.62,166l-83.89-.06c-8.24,0-8.23-7.81-8.23-7.81S612.64,186,636.89,186h69.68a3.92,3.92,0,0,0,4.22-4V170.05C710.79,166.18,706.62,166,706.62,166Z"/><path class="cls-3" d="M870.75,90h-16s20,17.14,20,52.31V94A4,4,0,0,0,870.75,90Z"/><path class="cls-3" d="M854.51,77.5h16a3.94,3.94,0,0,0,1.37-.28A24.12,24.12,0,0,1,850.51,58V73.5A4,4,0,0,0,854.51,77.5Z"/><path class="cls-4" d="M948.41,110h0c4.12,1,14.33,3.71,14.33,19.83l.08,52.13a4,4,0,0,0,4,4h16a4,4,0,0,0,4-4V139.54C986.79,113.58,948.41,110,948.41,110Z"/><circle class="cls-5" cx="127.75" cy="127.75" r="127.75" transform="translate(-21.17 230.03) rotate(-79.48)"/><path class="cls-6" d="M245.86,127.75A118.11,118.11,0,1,1,127.75,9.64,118.11,118.11,0,0,1,245.86,127.75Z"/><path class="cls-7" d="M17.71,177.9c25.34,7.38,94.68,23.35,138.46-7.56,28.39-20.05,24.74-52.17,24.74-52.17C180.43,93.75,165,69.48,165,69.48c60,52.32,24.55,110.44,24.55,110.44-18.27,35.94-57.87,57.55-89.45,65.12A120.66,120.66,0,0,1,17.71,177.9ZM34,51.41c7.44,39,24.12,71.83,35.21,83.78,14.35,15.44,35.46,31.84,62.56,25.06s32.62-36.41,32.62-36.41c6-25.21-2.53-55.15-3-55.78s-4.53-1.33-4.53-1.33c4.25,39.7-6.19,57.27-6.19,57.27-15.2,31.13-37.5,21.51-37.5,21.51C88.34,132.86,89.51,97.22,89.51,97.22c-.76-24.78,9.06-65.75,27.93-89.6A120.27,120.27,0,0,0,34,51.41Zm140.37-34.6c-14.49,11.78-39.13,36.92-39.13,36.92-36.56,33.87-29.47,62.4-29.47,62.4,5.83,29.93,24,9.76,24,9.76C148.76,106.2,147.34,67,147.34,67a27.5,27.5,0,0,0-12.61,5.52c-.94,26.15-16.38,42.39-16.38,42.39-6,6.61-10.24.31-10.24.31-3.15-4.73,3.15-8,3.15-8,8.81-7.72,11.46-20.89,11.35-25.84s2.51-6.3,2.51-6.3A142.87,142.87,0,0,1,150,59.71c16.69-8.51,46.48-9.93,46.48-9.93a185.21,185.21,0,0,0,22-.67A120.75,120.75,0,0,0,174.34,16.81Z"/><path class="cls-3" d="M833.5,146.39c-4.08-22.17-24.56-31.6-24.56-31.6,5.51,3.86,9.42,10.73,9.42,22.94,0,24.79-17.82,28.26-29,28.26-1.32,0-2.92,0-4.73,0l-37.89-.1v20.13c17.1,0,52.87,0,53.69,0a48.14,48.14,0,0,0,15.91-3.11C834.43,171.38,835.19,155.55,833.5,146.39Z"/></g></g></svg>